<?xml version="1.0" encoding="UTF-8" standalone="no"?>
<svg width="16px" height="16px" viewBox="0 0 16 16" version="1.1" xmlns="http://www.w3.org/2000/svg" xmlns:xlink="http://www.w3.org/1999/xlink" xmlns:sketch="http://www.bohemiancoding.com/sketch/ns">
    <!-- Generator: Sketch Beta 3.3 (11609) - http://www.bohemiancoding.com/sketch -->
    <title>feed-icon2</title>
    <desc>Created with Sketch Beta.</desc>
    <defs>
        <rect id="path-1" x="0" y="0" width="16" height="16"></rect>
    </defs>
    <g id="Page-1" stroke="none" stroke-width="1" fill="none" fill-rule="evenodd" sketch:type="MSPage">
        <g id="feed-icon2" sketch:type="MSLayerGroup">
            <mask id="mask-2" sketch:name="Mask" fill="white">
                <use xlink:href="#path-1"></use>
            </mask>
            <use id="Mask" sketch:type="MSShapeGroup" xlink:href="#path-1"></use>
            <g id="3-ring-+-2-ring-+-1-ring" mask="url(#mask-2)" fill="#FF9900" sketch:type="MSShapeGroup">
                <g transform="translate(-16.000000, 0.000000)">
                    <path d="M16,29.001 L16,29.001 C23.1797017,29.001 29,23.1807017 29,16.001 C29,8.82129825 23.1797017,3.001 16,3.001 C8.82029825,3.001 3,8.82129825 3,16.001 C3,23.1807017 8.82029825,29.001 16,29.001 L16,29.001 Z M16,32.001 L16,32.001 C7.163444,32.001 0,24.837556 0,16.001 C0,7.164444 7.163444,0.001 16,0.001 C24.836556,0.001 32,7.164444 32,16.001 C32,24.837556 24.836556,32.001 16,32.001 L16,32.001 Z" id="Shape"></path>
                    <path d="M16.5,24.001 L16.5,24.001 C20.6421356,24.001 24,20.6431356 24,16.501 C24,12.3588644 20.6421356,9.001 16.5,9.001 C12.3578644,9.001 9,12.3588644 9,16.501 C9,20.6431356 12.3578644,24.001 16.5,24.001 L16.5,24.001 Z M16.5,27.001 L16.5,27.001 C10.7010101,27.001 6,22.2999899 6,16.501 C6,10.7020101 10.7010101,6.001 16.5,6.001 C22.2989899,6.001 27,10.7020101 27,16.501 C27,22.2999899 22.2989899,27.001 16.5,27.001 L16.5,27.001 Z" id="Shape"></path>
                    <circle id="1-ring" cx="18" cy="14.001" r="2"></circle>
                </g>
            </g>
        </g>
    </g>
</svg>