<?xml version="1.0" encoding="UTF-8" standalone="no"?>
<svg width="16px" height="16px" viewBox="0 0 16 16" version="1.1" xmlns="http://www.w3.org/2000/svg" xmlns:xlink="http://www.w3.org/1999/xlink" xmlns:sketch="http://www.bohemiancoding.com/sketch/ns">
    <!-- Generator: Sketch Beta 3.3 (11609) - http://www.bohemiancoding.com/sketch -->
    <title>feed-icon</title>
    <desc>Created with Sketch Beta.</desc>
    <defs>
        <rect id="path-1" x="2.08695652" y="2.7826087" width="10.4347826" height="10.4347826"></rect>
    </defs>
    <g id="Page-1" stroke="none" stroke-width="1" fill="none" fill-rule="evenodd" sketch:type="MSPage">
        <g id="feed-icon" sketch:type="MSLayerGroup">
            <rect id="rss-bg-orange" fill="#FF9900" sketch:type="MSShapeGroup" x="0" y="0" width="16" height="16" rx="3"></rect>
            <mask id="mask-2" sketch:name="Mask" fill="white">
                <use xlink:href="#path-1"></use>
            </mask>
            <use id="Mask" sketch:type="MSShapeGroup" xlink:href="#path-1"></use>
            <g id="3-ring-+-2-ring-+-1-ring" mask="url(#mask-2)" fill="#FFFFFF" sketch:type="MSShapeGroup">
                <g transform="translate(-8.347826, 2.782609)">
                    <path d="M10.4347826,18.7832609 L10.4347826,18.7832609 C15.0451597,18.7832609 18.7826087,15.0458118 18.7826087,10.4354348 C18.7826087,5.82505774 15.0451597,2.0876087 10.4347826,2.0876087 C5.82440557,2.0876087 2.08695652,5.82505774 2.08695652,10.4354348 C2.08695652,15.0458118 5.82440557,18.7832609 10.4347826,18.7832609 L10.4347826,18.7832609 Z M10.4347826,20.8702174 L10.4347826,20.8702174 C4.67181131,20.8702174 0,16.1984061 0,10.4354348 C0,4.67246348 4.67181131,0.000652173913 10.4347826,0.000652173913 C16.1977539,0.000652173913 20.8695652,4.67246348 20.8695652,10.4354348 C20.8695652,16.1984061 16.1977539,20.8702174 10.4347826,20.8702174 L10.4347826,20.8702174 Z" id="Shape"></path>
                    <path d="M10.7608696,15.5223913 L10.7608696,15.5223913 C13.3902252,15.5223913 15.5217391,13.3908774 15.5217391,10.7615217 C15.5217391,8.13216608 13.3902252,6.00065217 10.7608696,6.00065217 C8.13151391,6.00065217 6,8.13216608 6,10.7615217 C6,13.3908774 8.13151391,15.5223913 10.7608696,15.5223913 L10.7608696,15.5223913 Z M10.7608696,17.6093478 L10.7608696,17.6093478 C6.97891965,17.6093478 3.91304348,14.5434717 3.91304348,10.7615217 C3.91304348,6.97957182 6.97891965,3.91369565 10.7608696,3.91369565 C14.5428195,3.91369565 17.6086957,6.97957182 17.6086957,10.7615217 C17.6086957,14.5434717 14.5428195,17.6093478 10.7608696,17.6093478 L10.7608696,17.6093478 Z" id="Shape"></path>
                    <circle id="1-ring" cx="11.7391304" cy="9.13108696" r="1.30434783"></circle>
                </g>
            </g>
        </g>
    </g>
</svg>